Coordinates
version=1
nRows=7
nColumns=40
inDegrees=yes

Units are S.I. units (second, meters, Newtons, ...)
If the header above contains a line with 'inDegrees', this indicates whether rotational values are in degrees (yes) or radians (no).

endheader
time	pelvis_tilt	pelvis_list	pelvis_rotation	pelvis_tx	pelvis_ty	pelvis_tz	hip_flexion_r	hip_adduction_r	hip_rotation_r	knee_angle_r	knee_angle_r_beta	ankle_angle_r	subtalar_angle_r	mtp_angle_r	hip_flexion_l	hip_adduction_l	hip_rotation_l	knee_angle_l	knee_angle_l_beta	ankle_angle_l	subtalar_angle_l	mtp_angle_l	lumbar_extension	lumbar_bending	lumbar_rotation	arm_flex_r	arm_add_r	arm_rot_r	elbow_flex_r	pro_sup_r	wrist_flex_r	wrist_dev_r	arm_flex_l	arm_add_l	arm_rot_l	elbow_flex_l	pro_sup_l	wrist_flex_l	wrist_dev_l
      3.27500000	    -46.71873468	     -4.79279489	      8.50066038	      0.04503279	      0.53521226	     -1.19279382	    120.70958227	    -48.53109513	      5.79666065	     94.56596253	      1.65048741	     21.50996776	     -6.30037908	      0.00000000	    121.77416150	    -31.85996467	      0.84977439	     88.94617322	      1.55240358	     17.67212067	     11.13163359	      0.00000000	      0.00000000	      0.00000000	      0.00000000	     44.71232964	    -14.99582532	     44.71232964	     75.00019565	     45.00000026	      0.00000000	      0.00000000	     44.71232964	    -14.99582532	     44.71232964	     75.00019565	     45.00000026	      0.00000000	      0.00000000
      3.28000000	    -46.75866671	     -4.63484642	      8.51533094	      0.04500570	      0.53352495	     -1.19272052	    121.28756552	    -48.47911568	      6.33040428	     94.83293892	      1.65514702	     21.45729573	     -6.36182455	      0.00000000	    121.90786982	    -31.92986667	      0.81242948	     89.20243324	      1.55687616	     17.81952078	     11.11959557	      0.00000000	      0.00000000	      0.00000000	      0.00000000	     44.72593480	    -14.99613830	     44.72593480	     75.00019300	     45.00000026	      0.00000000	      0.00000000	     44.72593480	    -14.99613830	     44.72593480	     75.00019300	     45.00000026	      0.00000000	      0.00000000
      3.28500000	    -46.73332623	     -4.64416775	      8.47919171	      0.04511994	      0.53199409	     -1.19268503	    121.52707101	    -48.48217771	      6.52722402	     95.08841887	      1.65960599	     21.54108220	     -6.29913140	      0.00000000	    122.14520294	    -31.97014488	      1.00939814	     89.47181332	      1.56157773	     17.92934255	     11.11115139	      0.00000000	      0.00000000	      0.00000000	      0.00000000	     44.73976811	    -14.99644693	     44.73976811	     75.00019056	     45.00000026	      0.00000000	      0.00000000	     44.73976811	    -14.99644693	     44.73976811	     75.00019056	     45.00000026	      0.00000000	      0.00000000
      3.29000000	    -46.56017784	     -4.87909303	      8.35593774	      0.04556220	      0.53087997	     -1.19267514	    121.17141811	    -48.54843583	      6.20321318	     95.29809681	      1.66326556	     21.85596847	     -6.02831087	      0.00000000	    122.44892129	    -32.01181088	      1.51714923	     89.76151027	      1.56663390	     18.06621209	     11.16092197	      0.00000000	      0.00000000	      0.00000000	      0.00000000	     44.75215658	    -14.99671436	     44.75215658	     75.00018860	     45.00000026	      0.00000000	      0.00000000	     44.75215658	    -14.99671436	     44.75215658	     75.00018860	     45.00000026	      0.00000000	      0.00000000
      3.29500000	    -46.64429832	     -4.66298645	      8.41630842	      0.04542959	      0.52896880	     -1.19263309	    121.95464199	    -48.50068514	      6.91726953	     95.60397403	      1.66860412	     21.73626195	     -6.15836418	      0.00000000	    122.57989495	    -32.04080247	      1.41293547	     90.01411085	      1.57104261	     18.16557508	     11.11348423	      0.00000000	      0.00000000	      0.00000000	      0.00000000	     44.76463496	    -14.99697651	     44.76463496	     75.00018679	     45.00000026	      0.00000000	      0.00000000	     44.76463496	    -14.99697651	     44.76463496	     75.00018679	     45.00000026	      0.00000000	      0.00000000
      3.30000000	    -46.61767078	     -4.67559517	      8.37465374	      0.04555405	      0.52743605	     -1.19262156	    122.18169705	    -48.49803718	      7.10529885	     95.85239602	      1.67293991	     21.81818819	     -6.10052243	      0.00000000	    122.81719537	    -32.07051130	      1.62630804	     90.28512892	      1.57577277	     18.31022272	     11.09794451	      0.00000000	      0.00000000	      0.00000000	      0.00000000	     44.77629124	    -14.99721356	     44.77629124	     75.00018526	     45.00000026	      0.00000000	      0.00000000	     44.77629124	    -14.99721356	     44.77629124	     75.00018526	     45.00000026	      0.00000000	      0.00000000
      3.30500000	    -46.57822223	     -4.67808007	      8.35909230	      0.04570301	      0.52587130	     -1.19266169	    122.44507010	    -48.52661926	      7.34297576	     96.11571965	      1.67753577	     21.87217351	     -6.02974775	      0.00000000	    123.03123646	    -32.07845819	      1.81625664	     90.56386774	      1.58063768	     18.44900780	     11.06617025	      0.00000000	      0.00000000	      0.00000000	      0.00000000	     44.78711754	    -14.99742690	     44.78711754	     75.00018398	     45.00000026	      0.00000000	      0.00000000	     44.78711754	    -14.99742690	     44.78711754	     75.00018398	     45.00000026	      0.00000000	      0.00000000
